<?xml version="1.0" encoding="UTF-8" standalone="no"?>
<!-- Created with Inkscape (http://www.inkscape.org/) -->

<svg
   xmlns:dc="http://purl.org/dc/elements/1.1/"
   xmlns:cc="http://creativecommons.org/ns#"
   xmlns:rdf="http://www.w3.org/1999/02/22-rdf-syntax-ns#"
   xmlns:svg="http://www.w3.org/2000/svg"
   xmlns="http://www.w3.org/2000/svg"
   xmlns:xlink="http://www.w3.org/1999/xlink"
   xmlns:sodipodi="http://sodipodi.sourceforge.net/DTD/sodipodi-0.dtd"
   xmlns:inkscape="http://www.inkscape.org/namespaces/inkscape"
   width="236.7296"
   height="192.0412"
   id="svg3843"
   version="1.1"
   inkscape:version="0.48.5 r10040"
   sodipodi:docname="clippedimg.svg"
	 viewBox="0 0 236 192">
  <defs
     id="defs3845">
    <clipPath
       clipPathUnits="userSpaceOnUse"
       id="clipPath3908">
      <path
         style="fill:#5a5a5a;fill-opacity:1;fill-rule:nonzero;stroke:none"
         d="m 50.204581,-231.03663 c 57.382589,-24.77308 120.908589,-28.30429 144.249779,41.7193 2.2985,6.8955 1.95286,23.67146 -2.12131,31.81981 -7.90593,15.81186 -24.77041,16.99223 -35.35534,27.57716 -15.21605,15.21605 -0.48291,40.11883 -25.45585,40.30509 -52.522239,7.5948 -66.400423,-22.25716 -75.660424,-63.63961 -7.15557,-31.97786 -44.190965,-46.95446 -5.656855,-77.78175 z"
         id="path3910"
         inkscape:connector-curvature="0"
         sodipodi:nodetypes="cssscsc" />
    </clipPath>
    <clipPath
       clipPathUnits="userSpaceOnUse"
       id="clipPath3985">
      <path
         style="fill:#5a5a5a;fill-opacity:1;fill-rule:nonzero;stroke:none"
         d="m 262,86.36218 c -25.58699,-1.46203 -39.94453,-3.02774 -62,8 -28.846,14.423 -18.74285,63.3775 -9,111 4.85969,23.7539 -29.39679,83.1904 -32,91 -3.70128,11.1038 3.83657,44.5387 6.12132,53.6777 18.37853,73.5141 128.68625,64.3544 194.87868,53.3223 17.95602,-2.9927 33.00726,-14.6715 47,-24 66.63813,-44.4254 -2,-71.178 -2,-112 0,-44.42791 37.55497,-66.44503 -6,-110 -40.35253,-34.07533 -91.70399,-68.41181 -137,-71 z"
         id="path3987"
         inkscape:connector-curvature="0"
         sodipodi:nodetypes="sssssssscs" />
    </clipPath>
    <clipPath
       clipPathUnits="userSpaceOnUse"
       id="clipPath4056">
      <path
         style="fill:#417198;fill-opacity:1;fill-rule:nonzero;stroke:none"
         d="m 764,397.36218 c 60.12284,28.6168 93.37619,74.8714 43,151 -18.4065,27.8159 15.28459,66.5431 -47,79 -55.80785,11.1616 -138.64831,7.7034 -165,-45 -13.57923,-27.1585 4.30454,-54.0864 -5,-82 -10.89992,-32.6998 -16.58467,-68.7125 16,-92 24.98722,-17.8578 33.0019,-28.5237 67.58922,-28.2003 51.37311,0.4803 61.78351,3.5745 90.41078,17.2003 z"
         id="path4058"
         inkscape:connector-curvature="0"
         sodipodi:nodetypes="ssssssss" />
    </clipPath>
    <clipPath
       clipPathUnits="userSpaceOnUse"
       id="clipPath4195">
      <path
         sodipodi:nodetypes="cssssssscc"
         inkscape:connector-curvature="0"
         id="path4197"
         d="m 193.01032,876.69926 c -19.5718,-8.89628 -48.62243,-18.81991 -78.28723,-16.90293 -25.734021,1.66298 -66.17204,3.07642 -81.27901,20.28417 C 16.659109,899.19958 -2.383285,930.00595 -1.813644e-6,951.85301 2.2003479,972.02318 1.0910727,987.44665 29.842068,1027.9399 c 27.299332,38.4487 84.960112,18.3593 107.645612,18.8041 22.6855,0.4448 26.16493,-5.0188 49.74006,-23.2562 23.57514,-18.2374 52.93284,-41.81249 48.92952,-68.0565 -4.00333,-26.24401 -33.80585,-65.38763 -33.80585,-65.38763 z"
         style="fill:#000000;fill-opacity:1;fill-rule:nonzero;stroke:#000000;stroke-width:0.8231706;stroke-linecap:round;stroke-linejoin:round;stroke-miterlimit:4;stroke-opacity:1;stroke-dasharray:none;stroke-dashoffset:0" />
    </clipPath>
  </defs>
  <sodipodi:namedview
     id="base"
     pagecolor="#ffffff"
     bordercolor="#666666"
     borderopacity="1.0"
     inkscape:pageopacity="0.0"
     inkscape:pageshadow="2"
     inkscape:zoom="1.4142136"
     inkscape:cx="199.5475"
     inkscape:cy="144.45123"
     inkscape:document-units="px"
     inkscape:current-layer="layer1"
     showgrid="false"
     inkscape:snap-global="true"
     showguides="true"
     inkscape:guide-bbox="true"
     inkscape:window-width="1600"
     inkscape:window-height="823"
     inkscape:window-x="-9"
     inkscape:window-y="-9"
     inkscape:window-maximized="1"
     inkscape:snap-to-guides="true"
     inkscape:snap-grids="true"
     inkscape:object-nodes="true"
     inkscape:snap-smooth-nodes="true"
     fit-margin-top="0"
     fit-margin-left="0"
     fit-margin-right="0"
     fit-margin-bottom="0">
    <inkscape:grid
       type="xygrid"
       id="grid3851"
       empspacing="5"
       visible="true"
       enabled="true"
       snapvisiblegridlinesonly="false"
       spacingy="20px"
       spacingx="60px"
       originx="0.20310482px"
       originy="-0.7647615px" />
    <sodipodi:guide
       orientation="1,0"
       position="0.20310482,1319.2352"
       id="guide3914" />
    <sodipodi:guide
       orientation="1,0"
       position="264.66104,526.02979"
       id="guide4060" />
    <sodipodi:guide
       orientation="1,0"
       position="199.9523,1139.0411"
       id="guide3282" />
  </sodipodi:namedview>
  <metadata
     id="metadata3848">
    <rdf:RDF>
      <cc:Work
         rdf:about="">
        <dc:format>image/svg+xml</dc:format>
        <dc:type
           rdf:resource="http://purl.org/dc/dcmitype/StillImage" />
        <dc:title />
      </cc:Work>
    </rdf:RDF>
  </metadata>
  <g
     inkscape:label="Layer 1"
     inkscape:groupmode="layer"
     id="layer1"
     transform="translate(0.20310482,-859.55625)">
    <image
       y="855.0495"
       x="-6.2503777"
       id="image4192"
       xlink:href="<?php echo esc_attr(category_image_src( array('term_id'=>$this->id, 'size' => 'fdm-item-thumb-cover') , false )); ?>"
       height="420"
       width="420"
       clip-path="url(#clipPath4195)" />
    <flowRoot
       xml:space="preserve"
       id="flowRoot3926"
       style="font-size:20px;font-style:normal;font-variant:normal;font-weight:normal;font-stretch:normal;text-align:center;line-height:132.00000525%;letter-spacing:-2.36999989px;word-spacing:0px;text-anchor:middle;fill:#000000;fill-opacity:1;stroke:none;font-family:MS PMincho;-inkscape-font-specification:MS PMincho"><flowRegion
         id="flowRegion3928"><rect
           id="rect3930"
           width="2.1213202"
           height="33.23402"
           x="277.18585"
           y="604.98956" /></flowRegion><flowPara
         id="flowPara3932" /></flowRoot>    <flowRoot
       xml:space="preserve"
       id="flowRoot3934"
       style="font-size:20px;font-style:normal;font-variant:normal;font-weight:normal;font-stretch:normal;text-align:center;line-height:132.00000525%;letter-spacing:-2.36999989px;word-spacing:0px;text-anchor:middle;fill:#000000;fill-opacity:1;stroke:none;font-family:MS PMincho;-inkscape-font-specification:MS PMincho"><flowRegion
         id="flowRegion3936"><rect
           id="rect3938"
           width="3.5355339"
           height="30.405592"
           x="274.35742"
           y="605.69666" /></flowRegion><flowPara
         id="flowPara3940" /></flowRoot>  </g>
</svg>
