<?xml version="1.0" encoding="UTF-8" standalone="no"?>
<!-- Created with Inkscape (http://www.inkscape.org/) -->

<svg
   xmlns:dc="http://purl.org/dc/elements/1.1/"
   xmlns:cc="http://creativecommons.org/ns#"
   xmlns:rdf="http://www.w3.org/1999/02/22-rdf-syntax-ns#"
   xmlns:svg="http://www.w3.org/2000/svg"
   xmlns="http://www.w3.org/2000/svg"
   xmlns:sodipodi="http://sodipodi.sourceforge.net/DTD/sodipodi-0.dtd"
   xmlns:inkscape="http://www.inkscape.org/namespaces/inkscape"
   width="132.1841"
   height="88.533966"
   id="svg3843"
   version="1.1"
   inkscape:version="0.48.5 r10040"
   sodipodi:docname="puddle.svg">
  <defs
     id="defs3845">
    <clipPath
       clipPathUnits="userSpaceOnUse"
       id="clipPath3908">
      <path
         style="fill:#5a5a5a;fill-opacity:1;fill-rule:nonzero;stroke:none"
         d="m 50.204581,-231.03663 c 57.382589,-24.77308 120.908589,-28.30429 144.249779,41.7193 2.2985,6.8955 1.95286,23.67146 -2.12131,31.81981 -7.90593,15.81186 -24.77041,16.99223 -35.35534,27.57716 -15.21605,15.21605 -0.48291,40.11883 -25.45585,40.30509 -52.522239,7.5948 -66.400423,-22.25716 -75.660424,-63.63961 -7.15557,-31.97786 -44.190965,-46.95446 -5.656855,-77.78175 z"
         id="path3910"
         inkscape:connector-curvature="0"
         sodipodi:nodetypes="cssscsc" />
    </clipPath>
    <clipPath
       clipPathUnits="userSpaceOnUse"
       id="clipPath3985">
      <path
         style="fill:#5a5a5a;fill-opacity:1;fill-rule:nonzero;stroke:none"
         d="m 262,86.36218 c -25.58699,-1.46203 -39.94453,-3.02774 -62,8 -28.846,14.423 -18.74285,63.3775 -9,111 4.85969,23.7539 -29.39679,83.1904 -32,91 -3.70128,11.1038 3.83657,44.5387 6.12132,53.6777 18.37853,73.5141 128.68625,64.3544 194.87868,53.3223 17.95602,-2.9927 33.00726,-14.6715 47,-24 66.63813,-44.4254 -2,-71.178 -2,-112 0,-44.42791 37.55497,-66.44503 -6,-110 -40.35253,-34.07533 -91.70399,-68.41181 -137,-71 z"
         id="path3987"
         inkscape:connector-curvature="0"
         sodipodi:nodetypes="sssssssscs" />
    </clipPath>
    <clipPath
       clipPathUnits="userSpaceOnUse"
       id="clipPath4056">
      <path
         style="fill:#417198;fill-opacity:1;fill-rule:nonzero;stroke:none"
         d="m 764,397.36218 c 60.12284,28.6168 93.37619,74.8714 43,151 -18.4065,27.8159 15.28459,66.5431 -47,79 -55.80785,11.1616 -138.64831,7.7034 -165,-45 -13.57923,-27.1585 4.30454,-54.0864 -5,-82 -10.89992,-32.6998 -16.58467,-68.7125 16,-92 24.98722,-17.8578 33.0019,-28.5237 67.58922,-28.2003 51.37311,0.4803 61.78351,3.5745 90.41078,17.2003 z"
         id="path4058"
         inkscape:connector-curvature="0"
         sodipodi:nodetypes="ssssssss" />
    </clipPath>
    <clipPath
       clipPathUnits="userSpaceOnUse"
       id="clipPath4903">
      <path
         style="fill:#000000;fill-opacity:1;fill-rule:nonzero;stroke:#000000;stroke-width:0.8231706;stroke-linecap:round;stroke-linejoin:round;stroke-miterlimit:4;stroke-opacity:1;stroke-dasharray:none;stroke-dashoffset:0"
         d="m 356.94853,688.46501 c -16.46341,-7.48337 -40.90021,-15.83093 -65.85365,-14.2184 -21.64694,1.39886 -55.66259,2.58782 -68.37027,17.06263 -14.11918,16.08259 -30.13726,41.99629 -28.13249,60.3736 1.85089,16.96674 0.91779,29.94065 25.10255,64.00276 22.96365,32.34229 71.46674,15.44346 90.54933,15.81763 19.08259,0.37416 22.00941,-4.22173 41.84034,-19.56264 19.83093,-15.3409 44.52604,-35.17183 41.15853,-57.24777 -3.36752,-22.07593 -28.4368,-55.00276 -28.4368,-55.00276 z"
         id="path4905"
         inkscape:connector-curvature="0"
         sodipodi:nodetypes="cssssssscc" />
    </clipPath>
  </defs>
  <sodipodi:namedview
     id="base"
     pagecolor="#ffffff"
     bordercolor="#666666"
     borderopacity="1.0"
     inkscape:pageopacity="0.0"
     inkscape:pageshadow="2"
     inkscape:zoom="5.6568542"
     inkscape:cx="136.06572"
     inkscape:cy="10.335701"
     inkscape:document-units="px"
     inkscape:current-layer="layer1"
     showgrid="false"
     inkscape:snap-global="true"
     showguides="true"
     inkscape:guide-bbox="true"
     inkscape:window-width="1600"
     inkscape:window-height="823"
     inkscape:window-x="-9"
     inkscape:window-y="-9"
     inkscape:window-maximized="1"
     inkscape:snap-to-guides="true"
     inkscape:snap-grids="true"
     inkscape:object-nodes="true"
     inkscape:snap-smooth-nodes="true"
     fit-margin-top="0"
     fit-margin-left="0"
     fit-margin-right="0"
     fit-margin-bottom="0">
    <inkscape:grid
       type="xygrid"
       id="grid3851"
       empspacing="5"
       visible="true"
       enabled="true"
       snapvisiblegridlinesonly="false"
       spacingy="20px"
       spacingx="60px"
       originx="-9.9829583px"
       originy="-3976.4991px" />
    <sodipodi:guide
       orientation="1,0"
       position="-9.9829583,-2656.4991"
       id="guide3914" />
    <sodipodi:guide
       orientation="1,0"
       position="254.47498,-3449.7046"
       id="guide4060" />
    <sodipodi:guide
       orientation="1,0"
       position="189.76624,-2836.6932"
       id="guide3282" />
  </sodipodi:namedview>
  <metadata
     id="metadata3848">
    <rdf:RDF>
      <cc:Work
         rdf:about="">
        <dc:format>image/svg+xml</dc:format>
        <dc:type
           rdf:resource="http://purl.org/dc/dcmitype/StillImage" />
        <dc:title></dc:title>
      </cc:Work>
    </rdf:RDF>
  </metadata>
  <g
     inkscape:label="Layer 1"
     inkscape:groupmode="layer"
     id="layer1"
     transform="translate(-9.9829583,3012.6709)">
    <flowRoot
       xml:space="preserve"
       id="flowRoot3926"
       style="font-size:20px;font-style:normal;font-variant:normal;font-weight:normal;font-stretch:normal;text-align:center;line-height:132.00000525%;letter-spacing:-2.36999989px;word-spacing:0px;text-anchor:middle;fill:#000000;fill-opacity:1;stroke:none;font-family:MS PMincho;-inkscape-font-specification:MS PMincho"><flowRegion
         id="flowRegion3928"><rect
           id="rect3930"
           width="2.1213202"
           height="33.23402"
           x="277.18585"
           y="604.98956" /></flowRegion><flowPara
         id="flowPara3932" /></flowRoot>    <flowRoot
       xml:space="preserve"
       id="flowRoot3934"
       style="font-size:20px;font-style:normal;font-variant:normal;font-weight:normal;font-stretch:normal;text-align:center;line-height:132.00000525%;letter-spacing:-2.36999989px;word-spacing:0px;text-anchor:middle;fill:#000000;fill-opacity:1;stroke:none;font-family:MS PMincho;-inkscape-font-specification:MS PMincho"><flowRegion
         id="flowRegion3936"><rect
           id="rect3938"
           width="3.5355339"
           height="30.405592"
           x="274.35742"
           y="605.69666" /></flowRegion><flowPara
         id="flowPara3940" /></flowRoot>    <g
       style="fill:#dce7f0;fill-opacity:1"
       transform="matrix(-0.74396469,0,0,0.74396469,392.57402,-3354.6551)"
       id="g4395">
      <path
         sodipodi:nodetypes="sssss"
         inkscape:connector-curvature="0"
         id="path4397"
         d="m 383.82421,465.45161 c 25.04051,-2.8851 39.91993,-12.03217 50.87971,1.18427 13.47012,16.24368 4.80984,30.16895 8.08122,36.85296 27.82387,56.84909 -59.13351,94.02301 -89.39237,65.20665 -30.6412,-29.1805 -18.7455,-97.57785 30.43144,-103.24388 z"
         style="fill:#dce7f0;fill-opacity:1;fill-rule:nonzero;stroke:none" />
      <path
         sodipodi:nodetypes="sssss"
         inkscape:transform-center-y="29.388472"
         inkscape:transform-center-x="15.894599"
         style="fill:#dce7f0;fill-opacity:1;fill-rule:nonzero;stroke:none"
         d="m 501.77453,474.28285 c 7.80136,9.7181 14.0871,18.17467 12.12179,26.59204 -0.8518,3.64827 -15.07583,19.37433 -18.17511,21.47908 -27.22594,18.48944 -51.89097,-12.16289 -47.10806,-32.64805 4.84335,-20.74401 37.92772,-34.39954 53.16138,-15.42307 z"
         id="path4399"
         inkscape:connector-curvature="0" />
    </g>
  </g>
</svg>
