<?xml version="1.0" encoding="UTF-8" standalone="no"?>
<!-- Created with Inkscape (http://www.inkscape.org/) -->

<svg
   xmlns:dc="http://purl.org/dc/elements/1.1/"
   xmlns:cc="http://creativecommons.org/ns#"
   xmlns:rdf="http://www.w3.org/1999/02/22-rdf-syntax-ns#"
   xmlns:svg="http://www.w3.org/2000/svg"
   xmlns="http://www.w3.org/2000/svg"
   xmlns:sodipodi="http://sodipodi.sourceforge.net/DTD/sodipodi-0.dtd"
   xmlns:inkscape="http://www.inkscape.org/namespaces/inkscape"
   width="20.937584"
   height="24.925245"
   id="svg3843"
   version="1.1"
   inkscape:version="0.48.5 r10040"
   sodipodi:docname="ushi.svg">
  <defs
     id="defs3845">
    <clipPath
       clipPathUnits="userSpaceOnUse"
       id="clipPath3908">
      <path
         style="fill:#5a5a5a;fill-opacity:1;fill-rule:nonzero;stroke:none"
         d="m 50.204581,-231.03663 c 57.382589,-24.77308 120.908589,-28.30429 144.249779,41.7193 2.2985,6.8955 1.95286,23.67146 -2.12131,31.81981 -7.90593,15.81186 -24.77041,16.99223 -35.35534,27.57716 -15.21605,15.21605 -0.48291,40.11883 -25.45585,40.30509 -52.522239,7.5948 -66.400423,-22.25716 -75.660424,-63.63961 -7.15557,-31.97786 -44.190965,-46.95446 -5.656855,-77.78175 z"
         id="path3910"
         inkscape:connector-curvature="0"
         sodipodi:nodetypes="cssscsc" />
    </clipPath>
    <clipPath
       clipPathUnits="userSpaceOnUse"
       id="clipPath3985">
      <path
         style="fill:#5a5a5a;fill-opacity:1;fill-rule:nonzero;stroke:none"
         d="m 262,86.36218 c -25.58699,-1.46203 -39.94453,-3.02774 -62,8 -28.846,14.423 -18.74285,63.3775 -9,111 4.85969,23.7539 -29.39679,83.1904 -32,91 -3.70128,11.1038 3.83657,44.5387 6.12132,53.6777 18.37853,73.5141 128.68625,64.3544 194.87868,53.3223 17.95602,-2.9927 33.00726,-14.6715 47,-24 66.63813,-44.4254 -2,-71.178 -2,-112 0,-44.42791 37.55497,-66.44503 -6,-110 -40.35253,-34.07533 -91.70399,-68.41181 -137,-71 z"
         id="path3987"
         inkscape:connector-curvature="0"
         sodipodi:nodetypes="sssssssscs" />
    </clipPath>
    <clipPath
       clipPathUnits="userSpaceOnUse"
       id="clipPath4056">
      <path
         style="fill:#417198;fill-opacity:1;fill-rule:nonzero;stroke:none"
         d="m 764,397.36218 c 60.12284,28.6168 93.37619,74.8714 43,151 -18.4065,27.8159 15.28459,66.5431 -47,79 -55.80785,11.1616 -138.64831,7.7034 -165,-45 -13.57923,-27.1585 4.30454,-54.0864 -5,-82 -10.89992,-32.6998 -16.58467,-68.7125 16,-92 24.98722,-17.8578 33.0019,-28.5237 67.58922,-28.2003 51.37311,0.4803 61.78351,3.5745 90.41078,17.2003 z"
         id="path4058"
         inkscape:connector-curvature="0"
         sodipodi:nodetypes="ssssssss" />
    </clipPath>
    <clipPath
       clipPathUnits="userSpaceOnUse"
       id="clipPath4903">
      <path
         style="fill:#000000;fill-opacity:1;fill-rule:nonzero;stroke:#000000;stroke-width:0.8231706;stroke-linecap:round;stroke-linejoin:round;stroke-miterlimit:4;stroke-opacity:1;stroke-dasharray:none;stroke-dashoffset:0"
         d="m 356.94853,688.46501 c -16.46341,-7.48337 -40.90021,-15.83093 -65.85365,-14.2184 -21.64694,1.39886 -55.66259,2.58782 -68.37027,17.06263 -14.11918,16.08259 -30.13726,41.99629 -28.13249,60.3736 1.85089,16.96674 0.91779,29.94065 25.10255,64.00276 22.96365,32.34229 71.46674,15.44346 90.54933,15.81763 19.08259,0.37416 22.00941,-4.22173 41.84034,-19.56264 19.83093,-15.3409 44.52604,-35.17183 41.15853,-57.24777 -3.36752,-22.07593 -28.4368,-55.00276 -28.4368,-55.00276 z"
         id="path4905"
         inkscape:connector-curvature="0"
         sodipodi:nodetypes="cssssssscc" />
    </clipPath>
  </defs>
  <sodipodi:namedview
     id="base"
     pagecolor="#ffffff"
     bordercolor="#666666"
     borderopacity="1.0"
     inkscape:pageopacity="0.0"
     inkscape:pageshadow="2"
     inkscape:zoom="1.4142136"
     inkscape:cx="286.04393"
     inkscape:cy="-118.6087"
     inkscape:document-units="px"
     inkscape:current-layer="layer1"
     showgrid="false"
     inkscape:snap-global="true"
     showguides="true"
     inkscape:guide-bbox="true"
     inkscape:window-width="1600"
     inkscape:window-height="823"
     inkscape:window-x="-9"
     inkscape:window-y="-9"
     inkscape:window-maximized="1"
     inkscape:snap-to-guides="true"
     inkscape:snap-grids="true"
     inkscape:object-nodes="true"
     inkscape:snap-smooth-nodes="true"
     fit-margin-top="0"
     fit-margin-left="0"
     fit-margin-right="0"
     fit-margin-bottom="0">
    <inkscape:grid
       type="xygrid"
       id="grid3851"
       empspacing="5"
       visible="true"
       enabled="true"
       snapvisiblegridlinesonly="false"
       spacingy="20px"
       spacingx="60px"
       originx="-63.700641px"
       originy="-4010.3362px" />
    <sodipodi:guide
       orientation="1,0"
       position="-63.700641,-2690.3362"
       id="guide3914" />
    <sodipodi:guide
       orientation="1,0"
       position="200.7573,-3483.5417"
       id="guide4060" />
    <sodipodi:guide
       orientation="1,0"
       position="136.04856,-2870.5303"
       id="guide3282" />
  </sodipodi:namedview>
  <metadata
     id="metadata3848">
    <rdf:RDF>
      <cc:Work
         rdf:about="">
        <dc:format>image/svg+xml</dc:format>
        <dc:type
           rdf:resource="http://purl.org/dc/dcmitype/StillImage" />
        <dc:title></dc:title>
      </cc:Work>
    </rdf:RDF>
  </metadata>
  <g
     inkscape:label="Layer 1"
     inkscape:groupmode="layer"
     id="layer1"
     transform="translate(-63.700641,2982.8993)">
    <flowRoot
       xml:space="preserve"
       id="flowRoot3926"
       style="font-size:20px;font-style:normal;font-variant:normal;font-weight:normal;font-stretch:normal;text-align:center;line-height:132.00000525%;letter-spacing:-2.36999989px;word-spacing:0px;text-anchor:middle;fill:#000000;fill-opacity:1;stroke:none;font-family:MS PMincho;-inkscape-font-specification:MS PMincho"><flowRegion
         id="flowRegion3928"><rect
           id="rect3930"
           width="2.1213202"
           height="33.23402"
           x="277.18585"
           y="604.98956" /></flowRegion><flowPara
         id="flowPara3932" /></flowRoot>    <flowRoot
       xml:space="preserve"
       id="flowRoot3934"
       style="font-size:20px;font-style:normal;font-variant:normal;font-weight:normal;font-stretch:normal;text-align:center;line-height:132.00000525%;letter-spacing:-2.36999989px;word-spacing:0px;text-anchor:middle;fill:#000000;fill-opacity:1;stroke:none;font-family:MS PMincho;-inkscape-font-specification:MS PMincho"><flowRegion
         id="flowRegion3936"><rect
           id="rect3938"
           width="3.5355339"
           height="30.405592"
           x="274.35742"
           y="605.69666" /></flowRegion><flowPara
         id="flowPara3940" /></flowRoot>    <g
       inkscape:transform-center-y="7.5"
       inkscape:transform-center-x="-5"
       transform="matrix(0.45780733,0.09245802,-0.09245802,0.45780733,329.43578,-3913.6863)"
       id="g4755">
      <path
         inkscape:connector-curvature="0"
         style="fill:#000000;fill-opacity:1;fill-rule:nonzero;stroke:none"
         d="m -121,2826.9688 c -0.33952,0.4299 -0.65217,0.8966 -0.96875,1.4374 -2.44145,4.1708 -2.12544,10.7786 0.0937,13.1563 2.68476,2.8765 5.39868,4.1711 7.75,4.625 0.88439,-4.5784 1.01005,-9.3911 0.0312,-13.0625 -0.7034,-2.6384 -4.68944,-5.0152 -6.90625,-6.1562 z"
         transform="translate(0,-747.63782)"
         id="path4757" />
      <path
         style="fill:none;stroke:#000000;stroke-opacity:1"
         d="m -149.375,2838.5 c 1.50632,-0.5126 14.03156,-2.1763 19.19423,0.8351 4.49721,2.6232 1.76173,8.4797 -1.44423,8.7899 -5.10007,0.4935 -10.93238,0.5291 -17.375,-0.125 -3.98148,-0.4043 -7.2751,-7.1519 -0.375,-9.5 z"
         id="path4759"
         inkscape:connector-curvature="0"
         transform="translate(0,-747.63782)"
         sodipodi:nodetypes="sssss" />
      <path
         style="fill:none;stroke:#000000;stroke-width:1.10000002;stroke-linecap:round;stroke-linejoin:round;stroke-miterlimit:4;stroke-opacity:1;stroke-dasharray:none;stroke-dashoffset:0"
         d="m -152.94194,2840.8661 c -1.75,-5.75 -0.98484,-6.295 0.34099,-12.659 -5.75,0.75 -7.81795,-3.8752 -8.5403,-7.1543 4.93934,0.6213 10.55807,0.9142 10.55807,0.9142 4.27036,-4.659 17.00996,-4.2902 18.9038,0.5178 0,0 7.90426,-1.2473 11.78294,-2.9848 0.18197,6.2097 -4.44455,9.3891 -8.53294,8.091 2.24357,5.0756 1.51108,7.5807 0.23116,13.3875"
         id="path4761"
         inkscape:connector-curvature="0"
         transform="translate(0,-747.63782)"
         sodipodi:nodetypes="cccccccc" />
      <path
         style="fill:none;stroke:#000000;stroke-width:1.10000002;stroke-linecap:round;stroke-linejoin:round;stroke-miterlimit:4;stroke-opacity:1;stroke-dasharray:none;stroke-dashoffset:0"
         d="m -149.81825,2821.0622 c -1.14905,-1.591 -3.09359,-6.1872 -0.35355,-9.2808 1.5026,-1.7677 5.03813,7.0711 5.03813,7.0711"
         id="path4763"
         inkscape:connector-curvature="0"
         transform="translate(0,-747.63782)"
         sodipodi:nodetypes="ccc" />
      <path
         style="fill:none;stroke:#000000;stroke-width:1.10000002;stroke-linecap:round;stroke-linejoin:round;stroke-miterlimit:4;stroke-opacity:1;stroke-dasharray:none;stroke-dashoffset:0"
         d="m -132.22897,2821.5042 c 2.12133,-1.9446 4.59281,-8.2609 1.50261,-10.2531 -1.48344,-0.9564 -5.74525,7.6014 -5.74525,7.6014"
         id="path4765"
         inkscape:connector-curvature="0"
         transform="translate(0,-747.63782)"
         sodipodi:nodetypes="csc" />
      <path
         inkscape:connector-curvature="0"
         style="fill:#000000;fill-opacity:1;stroke:none"
         d="m -141.71875,2818.6875 c -0.25982,0.012 -0.52213,0.04 -0.78125,0.062 -0.80223,2.4009 -0.55119,5.6433 3.46875,9.75 3.08653,3.1531 7.63906,3.1746 11.8125,2.2812 -0.29597,-0.9725 -0.69515,-2.0029 -1.21875,-3.1874 4.08839,1.298 8.71322,-1.8841 8.53125,-8.0938 -3.87868,1.7375 -11.78125,3 -11.78125,3 -1.06528,-2.7045 -5.54029,-4.0219 -10.03125,-3.8125 z"
         transform="translate(0,-747.63782)"
         id="path4767" />
      <path
         style="fill:#000000;fill-opacity:1;fill-rule:nonzero;stroke:none"
         d="m -148.39623,2084.4249 c -0.45727,1.1651 -0.54938,2.7946 1.17085,2.7206 0.91774,-0.04 1.2638,-1.5215 0.89536,-2.8928 -0.25156,-0.9362 -1.59714,-1.0229 -2.06621,0.1722 z"
         id="path4769"
         inkscape:connector-curvature="0"
         sodipodi:nodetypes="ssss" />
      <path
         sodipodi:nodetypes="ssss"
         inkscape:connector-curvature="0"
         id="path4771"
         d="m -133.96938,2084.7999 c 0.45727,1.1651 0.54938,2.7946 -1.17085,2.7206 -0.91774,-0.04 -1.2638,-1.5215 -0.89536,-2.8928 0.25156,-0.9362 1.59714,-1.0229 2.06621,0.1722 z"
         style="fill:#000000;fill-opacity:1;fill-rule:nonzero;stroke:none" />
      <path
         style="fill:#000000;fill-opacity:1;fill-rule:nonzero;stroke:none"
         d="m -145.75238,2093.1333 c -0.17678,0.7076 0.22095,1.9365 0.83969,2.2716 0.34237,0.1855 0.81377,0.064 0.89266,-0.2965 0.0637,-0.2911 -0.36281,-1.4635 -0.40653,-1.6772 -0.22094,-1.0799 -1.1756,-0.8991 -1.32582,-0.2979 z"
         id="path4773"
         inkscape:connector-curvature="0"
         sodipodi:nodetypes="sssss" />
      <path
         sodipodi:nodetypes="sssss"
         inkscape:connector-curvature="0"
         id="path4775"
         d="m -136.89629,2092.8681 c 0.17678,0.7076 -0.22095,1.9365 -0.83969,2.2716 -0.34237,0.1855 -0.81377,0.064 -0.89266,-0.2965 -0.0637,-0.2911 0.36281,-1.4635 0.40653,-1.6772 0.22094,-1.0799 1.1756,-0.8991 1.32582,-0.2979 z"
         style="fill:#000000;fill-opacity:1;fill-rule:nonzero;stroke:none" />
      <path
         style="fill:none;stroke:#000000;stroke-linecap:round;stroke-linejoin:round;stroke-opacity:1"
         d="m -149.25,2848.25 c 0.25,3.375 2.125,9.375 3.5,10.25 1.375,0.875 2.1085,0.6729 3.3125,0.5625 0.89365,-0.082 -0.375,-5.75 -0.375,-5.75 1.625,0.9375 5.61107,0.672 6.5625,0.25 -1.125,3.5625 -1.74108,3.5124 -0.9375,5.5625 0.57185,1.4589 2.57235,1.1064 5.5,-0.375 0.91602,-0.4635 2.375,-5.375 2.375,-5.375 1.625,-0.062 3.875,-0.3125 5.375,-1.5625 -0.0625,2.1875 -0.75866,3.0385 -1.1875,6.25 -0.27597,2.0667 5.1919,1.4845 6.4375,-0.1875 4.04793,-5.4338 6.56365,-17.3872 4.60171,-24.7463 -0.97904,-3.6723 -8.41421,-6.8787 -8.41421,-6.8787"
         id="path4777"
         inkscape:connector-curvature="0"
         transform="translate(0,-747.63782)"
         sodipodi:nodetypes="cssccssccsssc" />
    </g>
  </g>
</svg>
